<svg version="1.1" id="Layer_1" xmlns="http://www.w3.org/2000/svg" xmlns:xlink="http://www.w3.org/1999/xlink" x="0px" y="0px"
	 width="100%" viewBox="0 0 200 200" enable-background="new 0 0 200 200" xml:space="preserve">
<path fill="#020202" opacity="1.000000" stroke="none" 
	d="
M148.000000,201.000000 
	C98.666672,201.000000 49.833340,201.000000 1.000006,201.000000 
	C1.000004,134.333344 1.000004,67.666679 1.000002,1.000015 
	C67.666656,1.000010 134.333313,1.000010 200.999969,1.000005 
	C200.999985,67.666649 200.999985,134.333298 201.000000,200.999969 
	C183.500000,201.000000 166.000000,201.000000 148.000000,201.000000 
M123.196922,123.684349 
	C123.196922,123.684349 122.999542,124.008873 122.431595,124.158432 
	C121.858315,124.664261 121.285034,125.170090 120.322166,125.714638 
	C120.322166,125.714638 120.014114,125.956268 120.235306,125.813835 
	C120.235306,125.813835 120.115959,125.579376 120.140877,125.526810 
	C120.140877,125.526810 120.117920,125.473366 120.154617,124.681480 
	C119.740662,124.526299 119.326714,124.371117 118.378998,124.426468 
	C117.806770,124.898811 117.234543,125.371155 115.939278,125.718918 
	C113.957466,126.466705 111.975662,127.214493 109.254501,127.938637 
	C108.519661,128.004379 107.784828,128.070114 106.210838,128.010544 
	C104.799347,128.071594 103.387863,128.132645 101.192451,128.027618 
	C98.140862,127.294540 95.089264,126.561462 91.607689,125.299179 
	C90.733925,125.252846 89.860168,125.206505 88.913033,124.680161 
	C88.798492,124.393806 88.683945,124.107452 88.569405,123.821098 
	C88.378899,124.180603 88.188393,124.540100 87.250290,124.824516 
	C85.583061,125.802704 85.583061,125.802704 89.199631,128.214828 
	C89.199631,128.214828 89.443558,128.069229 90.085243,128.467178 
	C91.005974,128.873596 91.926712,129.280014 93.373970,130.043869 
	C94.593025,130.329010 95.812088,130.614136 97.662148,131.076401 
	C98.731331,131.271255 99.800522,131.466110 101.655441,131.797836 
	C103.454254,131.479401 105.253059,131.160965 107.833031,130.979706 
	C109.612022,130.794922 111.391006,130.610123 113.925125,130.330139 
	C115.480736,129.578018 117.036339,128.825882 118.973663,128.319412 
	C119.338074,128.089325 119.702484,127.859238 120.568184,127.385536 
	C120.872047,127.175087 121.175919,126.964638 121.987572,126.536568 
	C122.391617,126.175766 122.795654,125.814957 123.747749,125.257500 
	C124.038979,125.008530 124.330208,124.759560 125.164062,124.167931 
	C125.249229,124.051430 125.418922,123.921188 125.402664,123.821175 
	C125.364067,123.583664 125.237381,123.360466 125.105675,123.005692 
	C125.105675,123.005692 125.112984,123.137474 125.898994,123.472366 
	C125.980095,123.015266 126.061188,122.558167 126.044968,122.045731 
	C126.044968,122.045731 126.102669,122.141678 126.893547,122.518684 
	C126.976196,122.047691 127.058846,121.576698 127.039436,121.039886 
	C127.039436,121.039886 127.105537,121.141769 127.887245,121.517929 
	C127.971237,121.049316 128.055237,120.580704 128.060532,120.146935 
	C128.060532,120.146935 128.148514,120.137619 128.692001,120.609230 
	C129.130157,120.072823 129.568298,119.536415 130.324005,118.799225 
	C130.324005,118.799225 130.427887,118.438164 130.916672,118.117371 
	C131.404343,117.284950 131.892029,116.452538 132.884171,115.240097 
	C133.229156,114.487190 133.574158,113.734291 134.236832,112.342575 
	C134.299911,112.197067 134.437622,112.035721 134.410782,111.909317 
	C134.352234,111.633430 134.209961,111.375320 134.107574,111.072762 
	C134.107574,111.072762 134.138885,111.051956 134.812729,111.159172 
	C135.163940,110.098885 135.515167,109.038605 136.119019,107.289261 
	C136.368622,105.864952 136.618240,104.440636 137.339935,102.513382 
	C137.564346,101.487427 137.788773,100.461472 137.946228,99.741615 
	C136.652496,99.433350 135.759903,99.220673 134.985672,98.307770 
	C134.717972,96.978004 134.450272,95.648239 134.252487,93.726410 
	C134.252914,93.527687 134.253342,93.328957 134.906815,93.298553 
	C135.706467,93.869003 136.506119,94.439453 137.305756,95.009911 
	C137.615677,94.840897 137.925583,94.671883 138.235489,94.502869 
	C137.756897,92.991013 137.278305,91.479149 136.972458,89.259377 
	C136.346008,87.828461 135.719574,86.397552 135.016891,84.989609 
	C135.016891,84.989609 135.082306,84.944130 135.460327,84.326332 
	C135.274551,83.882492 135.088776,83.438660 134.758743,82.323006 
	C133.859344,80.831291 132.959946,79.339569 131.996735,77.906448 
	C131.996735,77.906448 132.071014,77.951027 132.195023,77.453003 
	C132.107285,77.306030 132.019547,77.159065 131.861404,76.422264 
	C130.980118,75.811600 130.098816,75.200935 129.113098,73.788841 
	C128.407776,69.547920 125.672249,67.392532 122.068832,66.373169 
	C121.625153,67.962143 121.249596,69.307167 120.677490,71.356087 
	C121.869194,72.262344 123.654892,73.620316 125.731728,75.664734 
	C126.151489,75.794518 126.571259,75.924301 126.995934,75.997375 
	C126.995934,75.997375 126.945786,76.024315 126.691109,76.724770 
	C127.081978,77.059509 127.472847,77.394249 127.863724,77.728989 
	C127.891586,77.183563 127.919456,76.638138 128.202148,75.639702 
	C128.470352,75.426102 128.738571,75.212502 129.046021,75.517593 
	C129.471542,76.055908 129.897049,76.594223 130.506332,77.574303 
	C130.506332,77.574303 130.633362,78.035591 130.317719,78.326187 
	C130.144058,78.560539 130.030594,78.821098 129.234344,79.045448 
	C129.479248,79.712524 129.724152,80.379593 129.998215,80.999153 
	C129.998215,80.999153 129.945328,81.016800 129.771347,81.690086 
	C130.167923,82.142891 130.564499,82.595695 130.998810,83.003380 
	C130.998810,83.003380 130.939987,83.004814 130.735367,83.642868 
	C130.833191,84.077415 130.931030,84.511955 131.164185,85.592239 
	C132.371124,86.406372 133.578079,87.220505 134.962830,88.631569 
	C135.010910,89.043762 135.058990,89.455963 134.894531,90.420937 
	C134.637985,90.919899 134.381439,91.418861 134.071091,91.218330 
	C133.911255,90.648804 133.751434,90.079269 133.591599,89.509743 
	C133.375656,89.546394 133.159714,89.583038 132.943756,89.619690 
	C133.046677,91.038208 133.149582,92.456734 133.081985,94.732712 
	C133.077728,96.479782 133.073471,98.226852 132.944305,100.660835 
	C132.982605,101.122253 133.020905,101.583679 132.973480,102.813690 
	C132.796173,103.554001 132.618866,104.294319 132.247025,105.141434 
	C132.247025,105.141434 131.961685,105.478302 131.837036,106.349899 
	C131.876801,107.210350 131.916565,108.070801 131.930695,108.956879 
	C131.930695,108.956879 131.923264,108.992340 131.202576,109.141510 
	C131.091034,109.838524 130.979492,110.535530 130.512268,111.719086 
	C130.621475,112.730354 130.730682,113.741631 130.675674,115.373337 
	C130.200943,116.078094 129.726212,116.782860 129.004944,117.671326 
	C129.004944,117.671326 128.998825,117.978745 128.333069,118.399223 
	C128.070984,118.413666 127.808907,118.428101 127.932472,117.766037 
	C127.791985,117.309593 127.651497,116.853149 127.511009,116.396721 
	C126.989510,117.081512 126.468018,117.766304 125.289612,118.669792 
	C124.833107,120.049469 124.376595,121.429138 123.683571,123.163834 
	C123.683571,123.163834 123.559784,123.572060 123.196922,123.684349 
M108.020432,109.576439 
	C108.347191,109.423241 108.673958,109.270050 108.967674,109.704781 
	C109.236725,110.196503 109.505783,110.688225 109.774834,111.179939 
	C110.518051,110.119133 111.261276,109.058334 112.455238,107.448006 
	C113.309250,104.577995 114.163254,101.707993 114.780426,98.424873 
	C114.560692,98.002350 114.340950,97.579826 114.570457,96.762276 
	C114.038765,95.851662 113.507080,94.941055 113.003998,93.364906 
	C113.009636,92.921181 113.015266,92.477448 112.749611,91.457466 
	C111.836220,90.581879 110.922829,89.706291 109.660881,88.455627 
	C109.189941,88.277878 108.719009,88.100136 107.906021,87.525284 
	C104.383141,88.474564 100.576637,82.010818 97.535851,87.414360 
	C96.437202,87.232513 95.537209,87.083542 94.378578,87.201569 
	C94.218971,87.393616 94.089844,87.604340 93.341835,87.949783 
	C92.529411,88.288612 91.716995,88.627434 90.218506,89.107910 
	C88.255638,92.390785 85.882942,95.501648 84.417419,98.993271 
	C81.590561,105.728302 88.405136,117.955383 97.319221,117.785294 
	C97.465294,118.065781 97.555443,118.537743 97.765518,118.599106 
	C105.587448,120.883675 114.891205,116.822144 118.853043,109.098763 
	C122.770363,101.462173 121.650482,91.125282 115.698395,85.374657 
	C115.338921,85.027344 114.351883,85.329582 113.014923,85.329582 
	C114.339226,87.239296 115.325829,88.534164 116.178337,89.912010 
	C121.949326,99.239151 118.453766,111.748428 108.560059,115.561066 
	C105.149040,116.875534 101.079819,116.481934 97.195702,116.028259 
	C97.136375,115.182976 97.077049,114.337692 97.299019,113.510757 
	C97.299019,113.510757 97.577957,113.526390 97.577957,113.526390 
	C97.577957,113.526390 97.778969,113.332626 98.606651,113.699287 
	C101.302864,113.546425 103.999069,113.393562 107.659874,113.186012 
	C106.150513,111.908836 105.686310,111.516029 105.912094,111.058578 
	C106.450783,110.646530 106.989464,110.234482 108.020432,109.576439 
M79.995842,116.425827 
	C79.676956,115.241493 79.358078,114.057167 79.150093,112.039177 
	C76.083000,101.659157 78.109444,92.592102 86.767273,84.814644 
	C92.671204,83.031311 98.575134,81.247986 104.479065,79.464653 
	C99.697388,79.253654 94.575760,79.270515 89.574394,80.054565 
	C87.852753,80.324471 86.431137,82.508202 84.223228,84.018425 
	C81.260345,88.215393 77.433105,92.062012 75.553917,96.698242 
	C73.217934,102.461449 74.346687,108.612045 77.672691,114.818596 
	C78.098930,115.904694 78.525162,116.990791 79.106071,118.606560 
	C79.831589,119.176880 80.557106,119.747192 82.251205,121.078896 
	C81.110832,119.050117 80.539169,118.033089 79.995842,116.425827 
z"/>
<path fill="#0C0C0C" opacity="1.000000" stroke="none" 
	d="
M97.220146,116.980507 
	C88.405136,117.955383 81.590561,105.728302 84.417419,98.993271 
	C85.882942,95.501648 88.255638,92.390785 90.774353,89.309319 
	C92.217201,88.951729 93.104195,88.392731 93.991196,87.833740 
	C94.089844,87.604340 94.218971,87.393616 94.595047,87.506989 
	C94.897301,89.882965 94.983086,91.953506 95.044586,94.049454 
	C95.020302,94.074860 94.952950,94.050880 94.609375,94.026077 
	C93.175552,95.378120 92.085297,96.754974 90.987305,98.478088 
	C90.657921,100.158417 90.336281,101.492493 89.692886,102.946648 
	C89.175568,103.706055 88.979996,104.345383 88.535698,104.856339 
	C87.720978,104.876396 87.154984,105.024803 86.588989,105.173218 
	C87.404930,105.445305 88.220879,105.717384 89.442459,106.257004 
	C90.750328,106.354095 91.652542,106.183655 92.841324,106.042816 
	C94.417900,107.185425 95.707916,108.298424 96.623672,109.805901 
	C96.486435,110.474670 96.723457,110.748962 96.931641,111.326622 
	C96.757095,111.771584 96.611389,111.913170 96.270554,112.221024 
	C96.389519,112.755669 96.703613,113.124039 97.017715,113.492409 
	C97.077049,114.337692 97.136375,115.182976 97.243217,116.486572 
	C97.290733,116.944885 97.220146,116.980507 97.220146,116.980507 
z"/>
<path fill="#CFCFCF" opacity="1.000000" stroke="none" 
	d="
M97.269684,117.382904 
	C97.220146,116.980507 97.290733,116.944885 97.300995,116.906738 
	C101.079819,116.481934 105.149040,116.875534 108.560059,115.561066 
	C118.453766,111.748428 121.949326,99.239151 116.178337,89.912010 
	C115.325829,88.534164 114.339226,87.239296 113.014923,85.329582 
	C114.351883,85.329582 115.338921,85.027344 115.698395,85.374657 
	C121.650482,91.125282 122.770363,101.462173 118.853043,109.098763 
	C114.891205,116.822144 105.587448,120.883675 97.765518,118.599106 
	C97.555443,118.537743 97.465294,118.065781 97.269684,117.382904 
z"/>
<path fill="#8E8E8E" opacity="1.000000" stroke="none" 
	d="
M86.103645,85.063354 
	C78.109444,92.592102 76.083000,101.659157 79.009781,112.752655 
	C78.522141,113.659126 78.174820,113.852112 77.827499,114.045105 
	C74.346687,108.612045 73.217934,102.461449 75.553917,96.698242 
	C77.433105,92.062012 81.260345,88.215393 84.715302,84.160889 
	C85.506126,84.556679 85.804886,84.810013 86.103645,85.063354 
z"/>
<path fill="#1F1F1F" opacity="1.000000" stroke="none" 
	d="
M95.068878,94.024055 
	C94.983086,91.953506 94.897301,89.882965 94.724365,87.373497 
	C95.537209,87.083542 96.437202,87.232513 97.535851,87.414360 
	C100.576637,82.010818 104.383141,88.474564 107.896225,88.017380 
	C107.245461,89.663559 106.604492,90.817635 105.674843,92.100250 
	C101.464264,90.052567 98.110916,91.143753 95.068878,94.024055 
z"/>
<path fill="#ADADAD" opacity="1.000000" stroke="none" 
	d="
M86.435455,84.938995 
	C85.804886,84.810013 85.506126,84.556679 85.039917,84.060501 
	C86.431137,82.508202 87.852753,80.324471 89.574394,80.054565 
	C94.575760,79.270515 99.697388,79.253654 104.479065,79.464653 
	C98.575134,81.247986 92.671204,83.031311 86.435455,84.938995 
z"/>
<path fill="#181818" opacity="1.000000" stroke="none" 
	d="
M125.440582,74.978287 
	C123.654892,73.620316 121.869194,72.262344 120.677490,71.356087 
	C121.249596,69.307167 121.625153,67.962143 122.068832,66.373169 
	C125.672249,67.392532 128.407776,69.547920 129.184692,74.328888 
	C129.256287,74.868927 129.006775,74.998901 129.006775,74.998901 
	C128.738571,75.212502 128.470352,75.426102 127.826355,75.819901 
	C127.282303,76.008171 127.114044,76.016243 126.945786,76.024315 
	C126.945786,76.024315 126.995934,75.997375 126.904716,75.671539 
	C126.355858,75.223236 125.898224,75.100761 125.440582,74.978287 
z"/>
<path fill="#1F1F1F" opacity="1.000000" stroke="none" 
	d="
M115.017265,98.837982 
	C114.163254,101.707993 113.309250,104.577995 111.880539,107.723343 
	C110.840202,107.994133 110.374565,107.989586 110.018005,107.587158 
	C110.062080,106.658188 109.997070,106.127083 109.774811,105.351700 
	C110.085922,103.414253 110.554268,101.721100 111.374969,100.011093 
	C112.823975,99.608818 113.920616,99.223396 115.017265,98.837982 
z"/>
<path fill="#1F1F1F" opacity="1.000000" stroke="none" 
	d="
M112.975395,94.030441 
	C113.507080,94.941055 114.038765,95.851662 114.025375,96.956673 
	C112.654770,97.765533 111.829239,98.379997 110.832397,98.772263 
	C109.431526,96.372078 108.201973,94.194099 107.195450,91.859680 
	C109.270782,92.478973 111.123085,93.254707 112.975395,94.030441 
z"/>
<path fill="#0C0C0C" opacity="1.000000" stroke="none" 
	d="
M112.989700,93.697678 
	C111.123085,93.254707 109.270782,92.478973 106.943336,91.849365 
	C106.299980,91.987572 106.131752,91.979637 105.963524,91.971710 
	C106.604492,90.817635 107.245461,89.663559 108.067245,88.215935 
	C108.719009,88.100136 109.189941,88.277878 109.851532,89.004639 
	C111.035095,90.380333 112.028000,91.207024 113.020905,92.033722 
	C113.015266,92.477448 113.009636,92.921181 112.989700,93.697678 
z"/>
<path fill="#707070" opacity="1.000000" stroke="none" 
	d="
M109.993851,127.962280 
	C111.975662,127.214493 113.957466,126.466705 116.680656,126.000320 
	C117.253983,126.826889 117.085922,127.372063 116.581268,128.006653 
	C115.157288,128.495728 114.069893,128.895386 112.670303,129.342133 
	C111.551765,129.552307 110.745422,129.715408 109.993515,129.650452 
	C110.047935,129.422409 110.002167,128.955719 110.007172,128.707306 
	C110.012184,128.458878 109.993851,127.962280 109.993851,127.962280 
z"/>
<path fill="#7B7B7B" opacity="1.000000" stroke="none" 
	d="
M92.037674,125.828384 
	C95.089264,126.561462 98.140862,127.294540 101.583374,128.269821 
	C101.974289,128.512024 101.957642,128.831192 101.703293,128.899857 
	C101.281052,129.019867 101.113159,129.071198 100.637024,129.108063 
	C99.586586,129.346146 98.844391,129.598694 97.832794,129.935211 
	C97.375275,130.018524 97.187164,130.017883 96.786156,129.776428 
	C95.357613,129.111526 94.141968,128.687408 92.685165,128.177994 
	C92.290863,128.017639 92.137733,127.942581 91.994339,127.527618 
	C92.015266,126.734604 92.026466,126.281494 92.037674,125.828384 
z"/>
<path fill="#1F1F1F" opacity="1.000000" stroke="none" 
	d="
M134.785019,88.034637 
	C133.578079,87.220505 132.371124,86.406372 131.391846,85.200836 
	C131.393005,84.207901 131.166489,83.606354 130.939987,83.004814 
	C130.939987,83.004814 130.998810,83.003380 131.081833,82.767395 
	C131.189880,82.347816 131.214905,82.164223 131.491837,81.983215 
	C132.079666,81.987991 132.415588,81.990196 132.892334,82.193916 
	C133.104889,82.735443 133.286469,83.000099 133.665466,83.562164 
	C134.196121,84.271332 134.639221,84.607735 135.082306,84.944130 
	C135.082306,84.944130 135.016891,84.989609 134.645905,85.183388 
	C134.444946,86.262993 134.614975,87.148811 134.785019,88.034637 
z"/>
<path fill="#535353" opacity="1.000000" stroke="none" 
	d="
M133.059204,102.045097 
	C133.020905,101.583679 132.982605,101.122253 133.241745,100.217041 
	C133.981888,99.518166 134.424606,99.263077 134.867310,99.007988 
	C135.759903,99.220673 136.652496,99.433350 137.946228,99.741615 
	C137.788773,100.461472 137.564346,101.487427 136.840744,102.800171 
	C135.995972,103.158119 135.650406,103.229271 135.112946,103.067245 
	C134.639633,102.556931 134.358185,102.279793 133.820679,101.973190 
	C133.396133,101.977509 133.227661,102.011307 133.059204,102.045097 
z"/>
<path fill="#464646" opacity="1.000000" stroke="none" 
	d="
M136.799713,89.967300 
	C137.278305,91.479149 137.756897,92.991013 138.235489,94.502869 
	C137.925583,94.671883 137.615677,94.840897 137.305756,95.009911 
	C136.506119,94.439453 135.706467,93.869003 134.460220,92.920555 
	C134.050705,92.334312 134.087799,92.126076 134.124908,91.917831 
	C134.381439,91.418861 134.637985,90.919899 135.279572,90.198822 
	C136.042969,89.973564 136.421341,89.970428 136.799713,89.967300 
z"/>
<path fill="#999999" opacity="1.000000" stroke="none" 
	d="
M105.222099,111.123230 
	C105.686310,111.516029 106.150513,111.908836 107.659874,113.186012 
	C103.999069,113.393562 101.302864,113.546425 98.700165,113.462463 
	C100.502983,112.512077 102.212296,111.798508 104.062286,111.009209 
	C104.202972,110.933479 104.522369,110.924706 104.691437,110.995033 
	C104.860497,111.065361 105.222099,111.123230 105.222099,111.123230 
z"/>
<path fill="#2B2B2B" opacity="1.000000" stroke="none" 
	d="
M130.839890,114.752899 
	C130.730682,113.741631 130.621475,112.730354 131.003784,111.326767 
	C131.637955,110.287079 131.780609,109.639709 131.923279,108.992340 
	C131.923264,108.992340 131.930695,108.956879 132.270767,108.985962 
	C132.830505,109.004280 133.050171,108.993507 133.390579,108.968094 
	C133.511322,108.953461 133.754562,108.954308 133.697662,109.373962 
	C133.806808,110.213058 133.972839,110.632507 134.138885,111.051956 
	C134.138885,111.051956 134.107574,111.072762 133.839905,110.862473 
	C133.340363,111.035469 133.108490,111.418755 132.683014,112.000374 
	C132.293243,112.706581 132.097092,113.214455 131.724960,113.894989 
	C131.319183,114.302856 131.082809,114.531273 130.839890,114.752899 
z"/>
<path fill="#0C0C0C" opacity="1.000000" stroke="none" 
	d="
M133.754562,108.954308 
	C133.754562,108.954308 133.511322,108.953461 133.355637,108.562180 
	C132.787201,107.273369 132.374435,106.375839 131.961685,105.478302 
	C131.961685,105.478302 132.247025,105.141434 132.755219,105.097229 
	C133.534515,104.036232 133.805634,103.019447 134.076736,102.002655 
	C134.358185,102.279793 134.639633,102.556931 135.053955,103.452988 
	C134.906708,105.340271 134.626602,106.608635 134.200897,108.026855 
	C133.991730,108.450096 133.891495,108.709297 133.754562,108.954308 
z"/>
<path fill="#4C4C4C" opacity="1.000000" stroke="none" 
	d="
M103.921608,111.084946 
	C102.212296,111.798508 100.502983,112.512077 98.286316,113.279137 
	C97.778969,113.332626 97.577957,113.526390 97.577957,113.526390 
	C97.577957,113.526390 97.299019,113.510757 97.158371,113.501587 
	C96.703613,113.124039 96.389519,112.755669 96.447235,111.939804 
	C97.235977,111.357147 97.652908,111.221992 98.268921,111.132469 
	C98.468010,111.178093 98.875870,111.200806 99.084831,111.382309 
	C100.155319,111.554832 101.016838,111.545860 102.216949,111.453049 
	C103.010887,111.274452 103.466248,111.179703 103.921608,111.084946 
z"/>
<path fill="#373737" opacity="1.000000" stroke="none" 
	d="
M123.920090,122.808815 
	C124.376595,121.429138 124.833107,120.049469 125.996887,118.585403 
	C126.954323,118.462097 127.204475,118.423187 127.723816,118.498856 
	C128.044830,119.121490 128.096680,119.629555 128.148514,120.137619 
	C128.148514,120.137619 128.060532,120.146935 127.767349,120.058418 
	C127.351288,120.360527 127.228416,120.751152 127.105545,121.141769 
	C127.105537,121.141769 127.039436,121.039886 126.761688,121.027878 
	C126.356842,121.391136 126.229752,121.766403 126.102661,122.141678 
	C126.102669,122.141678 126.044968,122.045731 125.755417,122.032593 
	C125.348236,122.392120 125.230606,122.764793 125.112976,123.137474 
	C125.112984,123.137474 125.105675,123.005692 124.842529,122.899742 
	C124.359627,122.798798 124.139862,122.803802 123.920090,122.808815 
z"/>
<path fill="#ADADAD" opacity="1.000000" stroke="none" 
	d="
M77.750092,114.431854 
	C78.174820,113.852112 78.522141,113.659126 78.954330,113.169487 
	C79.358078,114.057167 79.676956,115.241493 79.735916,116.804810 
	C79.301125,117.481499 79.126266,117.779198 78.951401,118.076889 
	C78.525162,116.990791 78.098930,115.904694 77.750092,114.431854 
z"/>
<path fill="#5E5E5E" opacity="1.000000" stroke="none" 
	d="
M134.926483,98.657883 
	C134.424606,99.263077 133.981888,99.518166 133.304199,99.873589 
	C133.073471,98.226852 133.077728,96.479782 133.431671,94.347816 
	C133.915085,94.081444 134.048813,94.199959 134.182556,94.318474 
	C134.450272,95.648239 134.717972,96.978004 134.926483,98.657883 
z"/>
<path fill="#ADADAD" opacity="1.000000" stroke="none" 
	d="
M116.917862,127.917229 
	C117.085922,127.372063 117.253983,126.826889 117.042175,126.062607 
	C117.234543,125.371155 117.806770,124.898811 118.585541,124.429977 
	C118.792076,124.433479 118.822128,124.680481 118.797470,125.066139 
	C119.220528,125.494324 119.668243,125.536850 120.115959,125.579376 
	C120.115959,125.579376 120.235306,125.813835 120.118301,126.303894 
	C120.023163,127.072342 120.045029,127.350739 120.066895,127.629150 
	C119.702484,127.859238 119.338074,128.089325 118.364670,128.153320 
	C117.476418,127.963898 117.197144,127.940567 116.917862,127.917229 
z"/>
<path fill="#707070" opacity="1.000000" stroke="none" 
	d="
M91.822678,125.563782 
	C92.026466,126.281494 92.015266,126.734604 91.536926,127.337379 
	C90.527710,127.681107 89.985634,127.875168 89.443558,128.069229 
	C89.443558,128.069229 89.199631,128.214828 89.436737,127.836121 
	C89.454353,126.933983 89.234863,126.410553 89.021881,125.704842 
	C89.028381,125.522552 88.986404,125.160172 88.986404,125.160172 
	C89.860168,125.206505 90.733925,125.252846 91.822678,125.563782 
z"/>
<path fill="#2B2B2B" opacity="1.000000" stroke="none" 
	d="
M109.908920,107.985039 
	C110.374565,107.989586 110.840202,107.994133 111.655174,107.998108 
	C111.261276,109.058334 110.518051,110.119133 109.774841,111.179947 
	C109.505783,110.688225 109.236725,110.196503 109.035355,109.153015 
	C109.371658,108.395836 109.640289,108.190437 109.908920,107.985039 
z"/>
<path fill="#DBDBDB" opacity="1.000000" stroke="none" 
	d="
M134.346512,107.876999 
	C134.626602,106.608635 134.906708,105.340271 135.245819,103.686165 
	C135.650406,103.229271 135.995972,103.158119 136.604706,103.051636 
	C136.618240,104.440636 136.368622,105.864952 135.612930,107.605499 
	C134.853394,107.906815 134.599945,107.891907 134.346512,107.876999 
z"/>
<path fill="#DBDBDB" opacity="1.000000" stroke="none" 
	d="
M133.577896,83.189384 
	C133.286469,83.000099 133.104889,82.735443 132.782837,81.809311 
	C132.375168,80.098083 132.217865,78.972969 132.060547,77.847855 
	C132.959946,79.339569 133.859344,80.831291 134.498810,82.702263 
	C134.018570,83.117477 133.798233,83.153427 133.577896,83.189384 
z"/>
<path fill="#181818" opacity="1.000000" stroke="none" 
	d="
M132.028656,77.877151 
	C132.217865,78.972969 132.375168,80.098083 132.641998,81.607803 
	C132.415588,81.990196 132.079666,81.987991 131.344849,81.726730 
	C130.612396,81.317383 130.278854,81.167091 129.945328,81.016800 
	C129.945328,81.016800 129.998215,80.999153 130.062164,80.704666 
	C130.076508,79.976082 130.026901,79.541977 129.977310,79.107880 
	C130.030594,78.821098 130.144058,78.560539 130.854279,78.488243 
	C131.617569,78.417213 131.844284,78.184120 132.071014,77.951027 
	C132.071014,77.951027 131.996735,77.906448 132.028656,77.877151 
z"/>
<path fill="#C4C4C4" opacity="1.000000" stroke="none" 
	d="
M130.757782,115.063118 
	C131.082809,114.531273 131.319183,114.302856 131.852310,114.367500 
	C132.230331,114.984947 132.305008,115.302528 132.379700,115.620117 
	C131.892029,116.452538 131.404343,117.284950 130.383270,118.033821 
	C129.650421,117.796059 129.450958,117.641838 129.251495,117.487625 
	C129.726212,116.782860 130.200943,116.078094 130.757782,115.063118 
z"/>
<path fill="#E6E6E6" opacity="1.000000" stroke="none" 
	d="
M79.028732,118.341721 
	C79.126266,117.779198 79.301125,117.481499 79.721741,117.099930 
	C80.539169,118.033089 81.110832,119.050117 82.251205,121.078896 
	C80.557106,119.747192 79.831589,119.176880 79.028732,118.341721 
z"/>
<path fill="#C4C4C4" opacity="1.000000" stroke="none" 
	d="
M92.926323,128.263290 
	C94.141968,128.687408 95.357613,129.111526 96.771072,129.997772 
	C96.968880,130.459930 97.031143,130.899277 97.031143,130.899277 
	C95.812088,130.614136 94.593025,130.329010 93.126266,129.509125 
	C92.894470,128.737350 92.910393,128.500320 92.926323,128.263290 
z"/>
<path fill="#0C0C0C" opacity="1.000000" stroke="none" 
	d="
M111.003716,98.994469 
	C111.829239,98.379997 112.654770,97.765533 113.800751,97.154190 
	C114.340950,97.579826 114.560692,98.002350 114.898849,98.631424 
	C113.920616,99.223396 112.823975,99.608818 111.366425,99.752640 
	C111.004913,99.338852 111.004318,99.166656 111.003716,98.994469 
z"/>
<path fill="#CFCFCF" opacity="1.000000" stroke="none" 
	d="
M136.886078,89.613342 
	C136.421341,89.970428 136.042969,89.973564 135.385834,89.922424 
	C135.058990,89.455963 135.010910,89.043762 134.873932,88.333099 
	C134.614975,87.148811 134.444946,86.262993 134.684021,85.171906 
	C135.719574,86.397552 136.346008,87.828461 136.886078,89.613342 
z"/>
<path fill="#DBDBDB" opacity="1.000000" stroke="none" 
	d="
M116.581268,128.006653 
	C117.197144,127.940567 117.476418,127.963898 118.173813,128.030502 
	C117.036339,128.825882 115.480736,129.578018 113.489197,130.097076 
	C113.029678,129.674362 113.006088,129.484695 112.982498,129.295044 
	C114.069893,128.895386 115.157288,128.495728 116.581268,128.006653 
z"/>
<path fill="#707070" opacity="1.000000" stroke="none" 
	d="
M110.018005,107.587158 
	C109.640289,108.190437 109.371658,108.395836 109.051880,108.859047 
	C108.673958,109.270050 108.347191,109.423241 107.489151,109.311989 
	C106.751518,108.804268 106.545174,108.560997 106.584053,108.097694 
	C107.863525,107.117104 108.897789,106.356544 109.932053,105.595985 
	C109.997070,106.127083 110.062080,106.658188 110.018005,107.587158 
z"/>
<path fill="#E6E6E6" opacity="1.000000" stroke="none" 
	d="
M112.670303,129.342133 
	C113.006088,129.484695 113.029678,129.674362 113.111633,130.144669 
	C111.391006,130.610123 109.612022,130.794922 107.436218,130.739563 
	C107.039398,130.499420 107.060097,130.156708 107.418968,130.110901 
	C108.498253,130.002914 109.218674,129.940720 109.939087,129.878510 
	C110.745422,129.715408 111.551765,129.552307 112.670303,129.342133 
z"/>
<path fill="#ADADAD" opacity="1.000000" stroke="none" 
	d="
M107.060097,130.156708 
	C107.060097,130.156708 107.039398,130.499420 107.045639,130.670975 
	C105.253059,131.160965 103.454254,131.479401 101.183006,131.488800 
	C100.771393,130.849121 100.832214,130.518509 101.316162,130.091553 
	C103.179199,129.918945 104.619102,129.842697 106.315857,129.847137 
	C106.735168,130.004120 106.897629,130.080414 107.060097,130.156708 
z"/>
<path fill="#C4C4C4" opacity="1.000000" stroke="none" 
	d="
M129.026398,75.258247 
	C129.006775,74.998901 129.256287,74.868927 129.236908,74.729599 
	C130.098816,75.200935 130.980118,75.811600 131.494293,76.747093 
	C130.858963,77.092125 130.590775,77.112328 130.322571,77.132538 
	C129.897049,76.594223 129.471542,76.055908 129.026398,75.258247 
z"/>
<path fill="#C4C4C4" opacity="1.000000" stroke="none" 
	d="
M89.015381,125.887131 
	C89.234863,126.410553 89.454353,126.933983 89.339676,127.732407 
	C85.583061,125.802704 85.583061,125.802704 87.679253,125.122314 
	C88.410606,125.575783 88.712990,125.731461 89.015381,125.887131 
z"/>
<path fill="#FBFBFB" opacity="1.000000" stroke="none" 
	d="
M100.893028,130.187881 
	C100.832214,130.518509 100.771393,130.849121 100.790138,131.420349 
	C99.800522,131.466110 98.731331,131.271255 97.346649,130.987839 
	C97.031143,130.899277 96.968880,130.459930 96.983963,130.238586 
	C97.187164,130.017883 97.375275,130.018524 98.195702,129.994751 
	C99.559639,129.957718 100.291267,129.945114 100.934700,129.968018 
	C100.846504,130.003510 100.893028,130.187881 100.893028,130.187881 
z"/>
<path fill="#707070" opacity="1.000000" stroke="none" 
	d="
M101.957642,128.831192 
	C101.957642,128.831192 101.974289,128.512024 101.975327,128.352859 
	C103.387863,128.132645 104.799347,128.071594 106.614830,128.260452 
	C107.018822,128.510361 107.058372,128.885468 106.827118,128.980942 
	C106.438408,129.131393 106.280937,129.186386 105.710403,129.164413 
	C104.184105,129.002045 103.070869,128.916626 101.957642,128.831192 
z"/>
<path fill="#1F1F1F" opacity="1.000000" stroke="none" 
	d="
M112.885254,91.745590 
	C112.028000,91.207024 111.035095,90.380333 110.025818,89.192169 
	C110.922829,89.706291 111.836220,90.581879 112.885254,91.745590 
z"/>
<path fill="#999999" opacity="1.000000" stroke="none" 
	d="
M134.217529,94.022446 
	C134.048813,94.199959 133.915085,94.081444 133.516907,93.919083 
	C133.149582,92.456734 133.046677,91.038208 132.943756,89.619690 
	C133.159714,89.583038 133.375656,89.546394 133.591599,89.509743 
	C133.751434,90.079269 133.911255,90.648804 134.097992,91.568085 
	C134.087799,92.126076 134.050705,92.334312 134.133698,92.836395 
	C134.253342,93.328957 134.252914,93.527687 134.217529,94.022446 
z"/>
<path fill="#1F1F1F" opacity="1.000000" stroke="none" 
	d="
M93.666519,87.891762 
	C93.104195,88.392731 92.217201,88.951729 91.117386,89.238495 
	C91.716995,88.627434 92.529411,88.288612 93.666519,87.891762 
z"/>
<path fill="#C4C4C4" opacity="1.000000" stroke="none" 
	d="
M134.200897,108.026855 
	C134.599945,107.891907 134.853394,107.906815 135.486618,107.950027 
	C135.515167,109.038605 135.163940,110.098885 134.475800,111.105560 
	C133.972839,110.632507 133.806808,110.213058 133.697662,109.373962 
	C133.891495,108.709297 133.991730,108.450096 134.200897,108.026855 
z"/>
<path fill="#ADADAD" opacity="1.000000" stroke="none" 
	d="
M132.631927,115.430107 
	C132.305008,115.302528 132.230331,114.984947 132.028290,114.194839 
	C132.097092,113.214455 132.293243,112.706581 132.794403,112.249519 
	C133.372665,112.527351 133.645905,112.754364 133.919144,112.981384 
	C133.574158,113.734291 133.229156,114.487190 132.631927,115.430107 
z"/>
<path fill="#CFCFCF" opacity="1.000000" stroke="none" 
	d="
M128.420258,120.373428 
	C128.096680,119.629555 128.044830,119.121490 127.765961,118.485703 
	C127.538918,118.357986 127.546822,118.442543 127.546822,118.442543 
	C127.808907,118.428101 128.070984,118.413666 128.793854,118.395370 
	C129.467590,118.640846 129.718201,118.843674 130.006454,119.000008 
	C129.568298,119.536415 129.130157,120.072823 128.420258,120.373428 
z"/>
<path fill="#DBDBDB" opacity="1.000000" stroke="none" 
	d="
M123.199699,125.454155 
	C122.795654,125.814957 122.391617,126.175766 121.555031,126.366119 
	C120.985588,126.022423 120.848679,125.849174 120.711761,125.675919 
	C121.285034,125.170090 121.858315,124.664261 122.754166,124.446556 
	C123.117729,124.974503 123.158714,125.214325 123.199699,125.454155 
z"/>
<path fill="#999999" opacity="1.000000" stroke="none" 
	d="
M133.820679,101.973190 
	C133.805634,103.019447 133.534515,104.036232 132.852478,105.043831 
	C132.618866,104.294319 132.796173,103.554001 133.016342,102.429398 
	C133.227661,102.011307 133.396133,101.977509 133.820679,101.973190 
z"/>
<path fill="#999999" opacity="1.000000" stroke="none" 
	d="
M107.058372,128.885468 
	C107.058372,128.885468 107.018822,128.510361 107.034409,128.323105 
	C107.784828,128.070114 108.519661,128.004379 109.624176,127.950455 
	C109.993851,127.962280 110.012184,128.458878 109.638382,128.719757 
	C108.529175,128.948914 107.793770,128.917191 107.058372,128.885468 
z"/>
<path fill="#DBDBDB" opacity="1.000000" stroke="none" 
	d="
M92.685165,128.177994 
	C92.910393,128.500320 92.894470,128.737350 92.862999,129.330399 
	C91.926712,129.280014 91.005974,128.873596 89.764404,128.268204 
	C89.985634,127.875168 90.527710,127.681107 91.527191,127.677292 
	C92.137733,127.942581 92.290863,128.017639 92.685165,128.177994 
z"/>
<path fill="#4C4C4C" opacity="1.000000" stroke="none" 
	d="
M131.899353,105.914101 
	C132.374435,106.375839 132.787201,107.273369 133.234894,108.576813 
	C133.050171,108.993507 132.830505,109.004280 132.283569,108.973152 
	C131.916565,108.070801 131.876801,107.210350 131.899353,105.914101 
z"/>
<path fill="#707070" opacity="1.000000" stroke="none" 
	d="
M105.567093,111.090904 
	C105.222099,111.123230 104.860497,111.065361 104.924850,110.654137 
	C104.988518,109.967773 104.987816,109.692627 105.060654,109.199738 
	C105.535744,108.760567 105.937286,108.539146 106.338837,108.317726 
	C106.545174,108.560997 106.751518,108.804268 107.243011,109.434982 
	C106.989464,110.234482 106.450783,110.646530 105.567093,111.090904 
z"/>
<path fill="#707070" opacity="1.000000" stroke="none" 
	d="
M127.739647,118.104294 
	C127.546822,118.442543 127.538918,118.357986 127.496773,118.371132 
	C127.204475,118.423187 126.954323,118.462097 126.325348,118.476051 
	C126.468018,117.766304 126.989510,117.081512 127.511009,116.396713 
	C127.651497,116.853149 127.791985,117.309593 127.739647,118.104294 
z"/>
<path fill="#535353" opacity="1.000000" stroke="none" 
	d="
M89.021881,125.704842 
	C88.712990,125.731461 88.410606,125.575783 88.053055,125.159859 
	C88.188393,124.540100 88.378899,124.180603 88.569405,123.821098 
	C88.683945,124.107452 88.798492,124.393806 88.949722,124.920166 
	C88.986404,125.160172 89.028381,125.522552 89.021881,125.704842 
z"/>
<path fill="#4C4C4C" opacity="1.000000" stroke="none" 
	d="
M131.562927,109.066925 
	C131.780609,109.639709 131.637955,110.287079 131.181625,111.083488 
	C130.979492,110.535530 131.091034,109.838524 131.562927,109.066925 
z"/>
<path fill="#C4C4C4" opacity="1.000000" stroke="none" 
	d="
M134.077988,112.661972 
	C133.645905,112.754364 133.372665,112.527351 132.988037,112.051186 
	C133.108490,111.418755 133.340363,111.035469 133.837051,110.881058 
	C134.209961,111.375320 134.352234,111.633430 134.410782,111.909317 
	C134.437622,112.035721 134.299911,112.197067 134.077988,112.661972 
z"/>
<path fill="#CFCFCF" opacity="1.000000" stroke="none" 
	d="
M133.665466,83.562164 
	C133.798233,83.153427 134.018570,83.117477 134.570938,83.038170 
	C135.088776,83.438660 135.274551,83.882492 135.271317,84.635231 
	C134.639221,84.607735 134.196121,84.271332 133.665466,83.562164 
z"/>
<path fill="#707070" opacity="1.000000" stroke="none" 
	d="
M130.837677,83.323837 
	C131.166489,83.606354 131.393005,84.207901 131.324188,84.877975 
	C130.931030,84.511955 130.833191,84.077415 130.837677,83.323837 
z"/>
<path fill="#707070" opacity="1.000000" stroke="none" 
	d="
M129.605835,79.076660 
	C130.026901,79.541977 130.076508,79.976082 130.047577,80.728424 
	C129.724152,80.379593 129.479248,79.712524 129.605835,79.076660 
z"/>
<path fill="#707070" opacity="1.000000" stroke="none" 
	d="
M129.858337,81.353439 
	C130.278854,81.167091 130.612396,81.317383 131.092926,81.724152 
	C131.214905,82.164223 131.189880,82.347816 131.062958,82.789955 
	C130.564499,82.595695 130.167923,82.142891 129.858337,81.353439 
z"/>
<path fill="#707070" opacity="1.000000" stroke="none" 
	d="
M126.818451,76.374542 
	C127.114044,76.016243 127.282303,76.008171 127.698944,76.046402 
	C127.919456,76.638138 127.891586,77.183563 127.863724,77.728989 
	C127.472847,77.394249 127.081978,77.059509 126.818451,76.374542 
z"/>
<path fill="#DBDBDB" opacity="1.000000" stroke="none" 
	d="
M120.317535,127.507339 
	C120.045029,127.350739 120.023163,127.072342 120.007706,126.375107 
	C120.014114,125.956268 120.322166,125.714638 120.516968,125.695282 
	C120.848679,125.849174 120.985588,126.022423 121.301140,126.474930 
	C121.175919,126.964638 120.872047,127.175087 120.317535,127.507339 
z"/>
<path fill="#DBDBDB" opacity="1.000000" stroke="none" 
	d="
M130.414459,77.353424 
	C130.590775,77.112328 130.858963,77.092125 131.529495,77.042015 
	C132.019547,77.159065 132.107285,77.306030 132.133026,77.702011 
	C131.844284,78.184120 131.617569,78.417213 131.012100,78.342941 
	C130.633362,78.035591 130.506332,77.574303 130.414459,77.353424 
z"/>
<path fill="#C4C4C4" opacity="1.000000" stroke="none" 
	d="
M130.165222,118.899612 
	C129.718201,118.843674 129.467590,118.640846 129.126724,118.185135 
	C128.998825,117.978745 129.004944,117.671326 129.128220,117.579475 
	C129.450958,117.641838 129.650421,117.796059 130.138885,118.194214 
	C130.427887,118.438164 130.324005,118.799225 130.165222,118.899612 
z"/>
<path fill="#CFCFCF" opacity="1.000000" stroke="none" 
	d="
M127.496399,121.329849 
	C127.228416,120.751152 127.351288,120.360527 127.806686,120.041000 
	C128.055237,120.580704 127.971237,121.049316 127.496399,121.329849 
z"/>
<path fill="#707070" opacity="1.000000" stroke="none" 
	d="
M125.586151,75.321510 
	C125.898224,75.100761 126.355858,75.223236 126.902260,75.699898 
	C126.571259,75.924301 126.151489,75.794518 125.586151,75.321510 
z"/>
<path fill="#373737" opacity="1.000000" stroke="none" 
	d="
M120.128418,125.553093 
	C119.668243,125.536850 119.220528,125.494324 119.139610,125.235390 
	C119.710243,125.170441 119.914085,125.321899 120.117920,125.473366 
	C120.117920,125.473366 120.140877,125.526810 120.128418,125.553093 
z"/>
<path fill="#CFCFCF" opacity="1.000000" stroke="none" 
	d="
M126.498108,122.330185 
	C126.229752,121.766403 126.356842,121.391136 126.812714,121.060791 
	C127.058846,121.576698 126.976196,122.047691 126.498108,122.330185 
z"/>
<path fill="#CFCFCF" opacity="1.000000" stroke="none" 
	d="
M125.505981,123.304916 
	C125.230606,122.764793 125.348236,122.392120 125.804077,122.060257 
	C126.061188,122.558167 125.980095,123.015266 125.505981,123.304916 
z"/>
<path fill="#CFCFCF" opacity="1.000000" stroke="none" 
	d="
M123.473724,125.355827 
	C123.158714,125.214325 123.117729,124.974503 123.038147,124.371780 
	C122.999542,124.008873 123.196922,123.684349 123.641876,123.864967 
	C124.265045,124.200584 124.443245,124.355583 124.621445,124.510590 
	C124.330208,124.759560 124.038979,125.008530 123.473724,125.355827 
z"/>
<path fill="#7B7B7B" opacity="1.000000" stroke="none" 
	d="
M120.136269,125.077423 
	C119.914085,125.321899 119.710243,125.170441 119.164268,124.849731 
	C118.822128,124.680481 118.792076,124.433479 118.852417,124.324707 
	C119.326714,124.371117 119.740662,124.526299 120.136269,125.077423 
z"/>
<path fill="#CFCFCF" opacity="1.000000" stroke="none" 
	d="
M123.801834,122.986328 
	C124.139862,122.803802 124.359627,122.798798 124.862839,122.962639 
	C125.237381,123.360466 125.364067,123.583664 125.402664,123.821175 
	C125.418922,123.921188 125.249229,124.051430 124.892746,124.339256 
	C124.443245,124.355583 124.265045,124.200584 123.823311,123.808823 
	C123.559784,123.572060 123.683571,123.163834 123.801834,122.986328 
z"/>
<path fill="#020202" opacity="1.000000" stroke="none" 
	d="
M106.584053,108.097694 
	C105.937286,108.539146 105.535744,108.760567 104.710068,109.346069 
	C103.542671,109.861069 102.799416,110.011986 101.703613,110.080055 
	C100.874634,110.052460 100.398193,110.107727 99.551544,110.082291 
	C98.453545,109.804878 97.725739,109.608147 96.997932,109.411423 
	C95.707916,108.298424 94.417900,107.185425 92.686043,105.659729 
	C91.501022,104.440201 90.757828,103.633385 90.014641,102.826561 
	C90.336281,101.492493 90.657921,100.158417 91.319778,98.426590 
	C92.757637,96.702850 93.855293,95.376862 94.952942,94.050873 
	C94.952950,94.050880 95.020302,94.074860 95.044586,94.049454 
	C98.110916,91.143753 101.464264,90.052567 105.674843,92.100250 
	C106.131752,91.979637 106.299980,91.987572 106.720314,92.005806 
	C108.201973,94.194099 109.431526,96.372078 110.832397,98.772263 
	C111.004318,99.166656 111.004913,99.338852 111.014061,99.769493 
	C110.554268,101.721100 110.085922,103.414253 109.774811,105.351700 
	C108.897789,106.356544 107.863525,107.117104 106.584053,108.097694 
z"/>
<path fill="#7B7B7B" opacity="1.000000" stroke="none" 
	d="
M89.692886,102.946648 
	C90.757828,103.633385 91.501022,104.440201 92.399490,105.630112 
	C91.652542,106.183655 90.750328,106.354095 89.406281,105.999054 
	C88.904449,105.310608 88.844437,105.147659 88.784424,104.984703 
	C88.979996,104.345383 89.175568,103.706055 89.692886,102.946648 
z"/>
<path fill="#1F1F1F" opacity="1.000000" stroke="none" 
	d="
M94.609375,94.026070 
	C93.855293,95.376862 92.757637,96.702850 91.327515,98.080330 
	C92.085297,96.754974 93.175552,95.378120 94.609375,94.026070 
z"/>
<path fill="#020202" opacity="1.000000" stroke="none" 
	d="
M88.535698,104.856339 
	C88.844437,105.147659 88.904449,105.310608 89.000641,105.731522 
	C88.220879,105.717384 87.404930,105.445305 86.588989,105.173218 
	C87.154984,105.024803 87.720978,104.876396 88.535698,104.856339 
z"/>
<path fill="#CFCFCF" opacity="1.000000" stroke="none" 
	d="
M96.623672,109.805901 
	C97.725739,109.608147 98.453545,109.804878 99.409637,110.284882 
	C99.384628,110.779907 99.130608,110.990791 98.875870,111.200806 
	C98.875870,111.200806 98.468010,111.178093 97.994766,111.060860 
	C97.334511,110.970169 97.147499,110.996704 96.960487,111.023247 
	C96.723457,110.748962 96.486435,110.474670 96.623672,109.805901 
z"/>
<path fill="#999999" opacity="1.000000" stroke="none" 
	d="
M96.931641,111.326622 
	C97.147499,110.996704 97.334511,110.970169 97.795685,111.015236 
	C97.652908,111.221992 97.235977,111.357147 96.642372,111.773529 
	C96.611389,111.913170 96.757095,111.771584 96.931641,111.326622 
z"/>
<path fill="#2B2B2B" opacity="1.000000" stroke="none" 
	d="
M106.827118,128.980942 
	C107.793770,128.917191 108.529175,128.948914 109.633369,128.968170 
	C110.002167,128.955719 110.047935,129.422409 109.993515,129.650467 
	C109.218674,129.940720 108.498253,130.002914 107.418968,130.110901 
	C106.897629,130.080414 106.735168,130.004120 106.330444,129.715698 
	C106.088188,129.503555 106.123466,129.241364 106.123466,129.241364 
	C106.280937,129.186386 106.438408,129.131393 106.827118,128.980942 
z"/>
<path fill="#464646" opacity="1.000000" stroke="none" 
	d="
M105.710403,129.164413 
	C106.123466,129.241364 106.088188,129.503555 106.073601,129.635010 
	C104.619102,129.842697 103.179199,129.918945 101.316162,130.091553 
	C100.893028,130.187881 100.846504,130.003510 100.922264,129.764847 
	C100.998024,129.526184 100.945259,129.122543 100.945259,129.122543 
	C101.113159,129.071198 101.281052,129.019867 101.703293,128.899857 
	C103.070869,128.916626 104.184105,129.002045 105.710403,129.164413 
z"/>
<path fill="#2B2B2B" opacity="1.000000" stroke="none" 
	d="
M100.637024,129.108063 
	C100.945259,129.122543 100.998024,129.526184 101.010460,129.729355 
	C100.291267,129.945114 99.559639,129.957718 98.465103,129.910797 
	C98.844391,129.598694 99.586586,129.346146 100.637024,129.108063 
z"/>
<path fill="#CFCFCF" opacity="1.000000" stroke="none" 
	d="
M102.056152,110.162910 
	C102.799416,110.011986 103.542671,109.861069 104.636520,109.563812 
	C104.987816,109.692627 104.988518,109.967773 104.755791,110.583809 
	C104.522369,110.924706 104.202972,110.933479 104.062286,111.009216 
	C103.466248,111.179703 103.010887,111.274452 102.291061,111.112816 
	C102.036446,110.625252 102.046303,110.394081 102.056152,110.162910 
z"/>
<path fill="#999999" opacity="1.000000" stroke="none" 
	d="
M101.703613,110.080055 
	C102.046303,110.394081 102.036446,110.625252 101.952477,111.196655 
	C101.016838,111.545860 100.155319,111.554832 99.084831,111.382309 
	C99.130608,110.990791 99.384628,110.779907 99.779831,110.365570 
	C100.398193,110.107727 100.874634,110.052460 101.703613,110.080055 
z"/>
</svg>